REM COMMENT "Generated by IcecastMetadataRecorder https://github.com/eshaz/icecast-metadata-js"
REM BR "16"
REM METAINT "64"
REM DATE "2020-07-29T21:16:11.222Z"
TITLE "isics-all"
FILE "isics-all.mp3" WAVE
  TRACK 1 AUDIO
    TITLE "2020-07-29T21:20:25.886Z TO:5002 Department of Public Safety - Area A Law 2A - DPS District #1 FROM:10984"
    INDEX 01 04:14:50
  TRACK 2 AUDIO
    TITLE "2020-07-29T21:20:31.430Z TO:5002 Department of Public Safety - Area A Law 2A - DPS District #1 FROM:11030"
    INDEX 01 04:20:16
  TRACK 3 AUDIO
    TITLE "2020-07-29T21:20:44.750Z TO:1101 Polk County - Westcom Law Enforcement 1 FROM:1004"
    INDEX 01 04:33:40
  TRACK 4 AUDIO
    TITLE "2020-07-29T21:20:46.838Z TO:1101 Polk County - Westcom Law Enforcement 1 FROM:1401"
    INDEX 01 04:35:46
  TRACK 5 AUDIO
    TITLE "2020-07-29T21:20:48.998Z TO:1101 Polk County - Westcom Law Enforcement 1 FROM:1004"
    INDEX 01 04:37:58
  TRACK 6 AUDIO
    TITLE "2020-07-29T21:20:52.454Z TO:1101 Polk County - Westcom Law Enforcement 1 FROM:1401"
    INDEX 01 04:41:17
  TRACK 7 AUDIO
    TITLE "2020-07-29T21:20:53.894Z TO:24631 Dallas County Fire/EMS Operations FROM:2520043"
    INDEX 01 04:42:50
  TRACK 8 AUDIO
    TITLE "2020-07-29T21:20:56.630Z TO:24631 Dallas County Fire/EMS Operations FROM:2559981"
    INDEX 01 04:45:31
  TRACK 9 AUDIO
    TITLE "2020-07-29T21:20:58.790Z TO:24631 Dallas County Fire/EMS Operations FROM:2520043"
    INDEX 01 04:47:43
  TRACK 10 AUDIO
    TITLE "END"
    INDEX 01 04:48:70